<?xml version="1.0" standalone="no"?>
<!DOCTYPE svg PUBLIC "-//W3C//DTD SVG 20010904//EN"
 "http://www.w3.org/TR/2001/REC-SVG-20010904/DTD/svg10.dtd">
<svg version="1.0" xmlns="http://www.w3.org/2000/svg"
 width="1024.000000pt" height="1024.000000pt" viewBox="0 0 1024.000000 1024.000000"
 preserveAspectRatio="xMidYMid meet">
<metadata>
Created by potrace 1.14, written by Peter Selinger 2001-2017
</metadata>
<g transform="translate(0.000000,1024.000000) scale(0.100000,-0.100000)"
fill="#000000" stroke="none">
<path d="M5290 9620 c0 -6 4 -19 9 -29 5 -9 11 -30 14 -46 2 -17 9 -42 15 -58
16 -39 53 -119 64 -141 9 -17 7 -17 -21 3 -17 12 -31 26 -31 30 0 3 -12 14
-27 23 -16 10 -41 28 -58 42 -16 14 -35 30 -41 34 -5 5 -21 15 -35 22 -13 7
-26 16 -29 19 -11 13 -70 51 -80 51 -12 0 62 -108 142 -207 58 -72 68 -100 16
-45 -30 32 -162 106 -179 100 -6 -2 18 -24 52 -48 71 -49 95 -70 81 -70 -5 0
-15 7 -22 15 -7 8 -19 15 -26 15 -8 0 -22 4 -32 9 -40 21 -122 39 -122 28 0
-7 -5 -5 -10 3 -5 8 -10 12 -10 8 0 -4 -15 -2 -32 3 -95 30 -330 33 -350 5 -3
-5 -21 -11 -40 -12 -18 -1 -34 -3 -35 -4 -5 -4 -23 -7 -45 -9 -12 0 -19 -4
-15 -7 3 -4 45 -7 92 -7 47 0 85 -5 85 -10 0 -5 7 -7 15 -3 8 3 15 1 15 -5 0
-6 -25 -10 -57 -10 -32 1 -83 -1 -113 -2 -30 -2 -64 0 -75 3 -11 4 -33 3 -50
-1 -33 -7 -30 -9 30 -15 22 -3 46 -5 53 -6 13 -1 17 -18 5 -19 -5 0 -21 -3
-38 -5 -16 -3 -36 -6 -42 -6 -7 -1 -13 -5 -13 -9 0 -5 -6 -6 -14 -3 -15 6
-122 -13 -141 -24 -5 -4 -19 -8 -30 -9 -40 -7 -40 -23 0 -24 22 0 49 -2 60 -4
11 -2 34 -5 50 -7 17 -2 33 -7 36 -11 3 -5 21 -11 40 -14 46 -7 139 -43 139
-53 0 -5 -4 -12 -10 -15 -5 -3 -10 -1 -10 4 0 6 -5 11 -11 11 -5 0 -8 -3 -6
-7 3 -5 -34 -8 -81 -7 -48 0 -93 -1 -99 -4 -26 -9 -12 -19 22 -17 19 2 38 -1
41 -6 3 -5 -1 -9 -8 -10 -18 -1 -34 -4 -100 -22 -31 -8 -60 -12 -64 -8 -4 3
-4 1 -1 -5 4 -7 -3 -14 -18 -18 -14 -4 -25 -11 -25 -16 0 -6 -7 -10 -15 -10
-25 0 -66 -31 -58 -44 4 -6 -2 -4 -12 4 -11 9 -16 10 -11 3 4 -8 1 -13 -9 -13
-10 0 -13 -5 -9 -12 5 -8 0 -9 -14 -6 -12 4 -20 3 -18 -1 3 -4 1 -13 -5 -21
-7 -13 -9 -13 -9 -1 0 9 -6 7 -19 -7 -10 -12 -21 -19 -24 -16 -3 3 -30 -11
-61 -32 -56 -37 -74 -55 -36 -34 14 7 20 7 20 0 0 -9 -16 -14 -47 -13 -6 0
-10 -5 -7 -11 2 -6 -13 -19 -34 -29 -39 -19 -112 -77 -98 -77 5 0 29 11 53 25
23 14 43 22 43 18 0 -4 5 -1 10 7 8 13 10 12 10 -2 0 -10 -7 -18 -16 -18 -9 0
-12 -5 -8 -12 4 -6 3 -8 -4 -4 -6 3 -17 -3 -25 -14 -7 -11 -16 -18 -19 -15 -2
2 -23 -13 -46 -34 -22 -21 -44 -36 -48 -32 -4 3 -4 0 0 -6 5 -10 13 -9 34 4
15 10 30 22 34 28 4 5 8 6 8 1 0 -5 7 -3 15 4 8 6 18 9 24 6 5 -3 12 0 14 6 4
10 6 10 6 0 1 -7 -6 -20 -14 -28 -8 -9 -15 -12 -15 -7 0 4 -5 0 -11 -9 -5 -10
-14 -18 -20 -18 -14 0 -111 -69 -137 -98 -12 -14 -20 -32 -17 -39 3 -9 0 -11
-6 -7 -7 4 -10 1 -7 -7 3 -8 -1 -20 -9 -27 -7 -8 -11 -18 -7 -23 3 -5 2 -8 -3
-7 -14 5 -64 -54 -59 -68 3 -7 -2 -18 -9 -24 -8 -7 -12 -16 -9 -21 3 -5 0 -9
-5 -9 -6 0 -10 -3 -9 -7 4 -15 -14 -56 -33 -76 -10 -11 -16 -24 -13 -29 3 -4
0 -8 -5 -8 -6 0 -11 -5 -11 -11 0 -6 -10 -25 -22 -42 -13 -18 -23 -35 -23 -39
0 -3 -14 -27 -32 -52 -30 -42 -35 -45 -69 -41 -20 3 -40 8 -45 11 -5 3 -9 2
-9 -3 0 -4 -17 -9 -38 -9 -70 -2 -219 -45 -234 -68 -4 -6 -8 -8 -8 -3 0 4 -23
-9 -51 -28 -45 -31 -94 -78 -166 -160 -27 -30 -117 -211 -127 -255 -1 -3 -5
-11 -9 -17 -5 -7 -6 -17 -2 -22 3 -5 0 -13 -6 -16 -5 -4 -8 -13 -5 -20 2 -7 2
-16 -2 -19 -3 -4 -7 -14 -9 -24 -1 -9 -5 -39 -10 -67 -12 -85 -6 -276 10 -302
4 -6 8 -23 9 -37 1 -14 6 -26 10 -26 4 0 7 -3 6 -7 -4 -12 25 -113 32 -113 4
0 7 -6 7 -12 0 -14 83 -190 93 -198 4 -3 22 -31 41 -62 18 -32 37 -58 41 -58
5 0 8 -5 8 -10 0 -13 41 -60 99 -114 24 -23 49 -46 56 -53 7 -7 15 -9 19 -6 3
4 6 -1 6 -11 0 -9 5 -14 10 -11 6 3 13 -1 16 -9 3 -9 10 -16 15 -16 5 0 33
-16 63 -35 29 -19 56 -31 60 -28 3 3 8 -2 12 -11 3 -9 11 -16 18 -16 6 0 43
-13 81 -29 38 -16 73 -27 77 -25 4 3 8 0 8 -6 0 -7 6 -10 14 -7 7 3 19 0 25
-6 6 -6 11 -8 11 -3 0 4 8 0 17 -10 16 -15 16 -17 -2 -30 -10 -8 -15 -14 -11
-14 5 0 3 -7 -4 -15 -9 -11 -10 -19 -3 -26 6 -6 16 -1 28 15 17 23 20 23 32 8
13 -15 13 -14 9 8 -3 14 -3 19 0 13 3 -7 12 -13 20 -13 9 0 13 4 9 9 -3 5 -1
12 5 16 5 3 10 1 10 -4 0 -6 7 -11 16 -11 8 0 12 5 9 10 -3 6 3 10 14 10 20 0
20 -4 6 -53 -5 -18 -3 -33 4 -40 13 -13 15 -31 3 -23 -5 3 -9 -1 -9 -9 0 -8 5
-12 11 -9 6 3 4 0 -4 -8 -15 -13 -25 -38 -14 -38 3 0 14 10 25 23 l18 22 1
-30 c0 -17 6 -37 13 -44 10 -11 9 -12 -1 -7 -9 6 -12 -1 -10 -28 2 -34 3 -35
23 -18 11 9 14 10 8 2 -19 -21 -16 -32 6 -21 17 9 19 7 17 -18 -1 -19 2 -27
10 -24 8 3 11 -2 8 -14 -3 -11 3 -26 13 -36 18 -16 19 -14 32 28 7 25 17 45
21 45 12 0 19 -36 9 -51 -5 -8 -2 -21 9 -33 9 -11 11 -16 5 -12 -7 4 -13 3
-13 -1 0 -5 6 -15 13 -22 9 -11 9 -13 0 -7 -17 9 -17 -6 0 -23 10 -11 9 -12
-3 -6 -12 6 -13 5 -3 -5 10 -11 15 -11 28 0 12 10 15 10 15 -3 0 -9 8 -18 18
-21 12 -4 18 -16 17 -33 0 -21 -10 -32 -47 -54 -25 -15 -49 -25 -52 -22 -3 4
-6 1 -6 -5 0 -7 -6 -12 -13 -12 -7 0 -23 -9 -35 -20 -12 -12 -22 -18 -22 -15
0 7 -109 -65 -135 -89 -11 -10 -37 -31 -57 -46 -21 -15 -35 -30 -32 -33 3 -2
-5 -13 -18 -23 -13 -11 -37 -37 -53 -59 -17 -22 -36 -46 -42 -53 -7 -7 -13
-18 -13 -23 0 -6 -4 -7 -10 -4 -5 3 -10 -1 -10 -9 0 -9 -5 -16 -11 -16 -5 0
-8 -4 -5 -9 3 -5 -1 -12 -10 -15 -8 -3 -12 -10 -9 -16 3 -5 2 -10 -2 -10 -10
0 -49 -62 -45 -72 1 -5 -2 -8 -7 -8 -5 0 -17 -7 -25 -16 -9 -9 -16 -11 -16 -4
0 6 -4 9 -9 5 -5 -3 -16 1 -24 9 -8 8 -17 13 -19 10 -3 -2 -11 2 -18 11 -7 8
-21 15 -31 15 -11 0 -19 4 -19 8 0 5 -30 24 -67 42 -38 19 -69 38 -71 42 -2 4
-12 8 -23 8 -10 0 -19 3 -19 8 0 4 -15 13 -32 21 -18 8 -35 17 -38 21 -9 12
-96 50 -113 50 -9 0 -17 5 -17 11 0 8 -5 8 -15 -1 -12 -10 -15 -10 -15 1 -1
10 -5 9 -14 -4 -9 -12 -12 -35 -9 -71 4 -43 2 -53 -11 -53 -9 0 -16 3 -16 7 0
7 -75 34 -95 35 -5 0 -13 4 -17 9 -4 6 -14 4 -24 -5 -11 -8 -15 -9 -10 -2 5 9
2 11 -8 7 -18 -7 -22 -54 -4 -54 6 0 9 -3 5 -6 -3 -3 3 -29 15 -58 11 -28 21
-57 21 -63 0 -7 5 -13 10 -13 6 0 7 -3 4 -7 -4 -3 -2 -12 4 -20 6 -7 8 -13 5
-13 -4 0 -1 -10 6 -22 7 -13 13 -25 13 -28 9 -38 20 -67 28 -77 5 -7 7 -13 5
-13 -3 0 6 -30 19 -67 24 -69 30 -88 39 -133 3 -14 9 -29 15 -35 5 -5 9 -21 9
-35 0 -15 3 -30 7 -34 4 -3 8 -14 9 -24 2 -9 10 -42 18 -72 18 -62 20 -100 6
-100 -5 0 -40 -30 -78 -67 -76 -76 -128 -115 -192 -143 -35 -16 -92 -61 -86
-67 10 -11 -35 -42 -55 -38 -10 2 -21 -1 -24 -6 -4 -5 -11 -7 -16 -3 -5 3 -15
1 -22 -5 -14 -11 -55 -21 -109 -25 -38 -2 -66 -16 -35 -16 9 0 17 -4 17 -8 0
-5 -12 -8 -27 -8 -44 0 -173 -46 -173 -62 0 -11 3 -12 14 -3 10 8 16 9 21 1 3
-5 15 -10 26 -10 10 0 19 -4 19 -10 0 -5 -9 -10 -21 -10 -11 0 -18 -4 -14 -9
3 -6 -6 -6 -25 -1 -17 5 -28 5 -25 1 2 -5 -8 -11 -23 -14 -15 -3 -40 -11 -57
-18 -16 -7 -32 -13 -35 -13 -15 -3 -119 -60 -116 -64 2 -2 18 4 35 13 17 8 31
13 31 10 0 -4 7 1 16 9 8 9 24 16 35 16 10 0 19 5 19 12 0 6 3 8 7 5 3 -4 11
-3 17 3 7 5 17 5 26 -2 12 -8 12 -9 -2 -4 -10 3 -18 2 -18 -3 0 -5 -11 -12
-25 -15 -33 -8 -32 -26 3 -27 16 -1 20 -3 10 -6 -10 -2 -18 -9 -18 -14 0 -6
-5 -7 -10 -4 -6 3 -10 2 -10 -3 0 -5 -11 -15 -25 -22 -16 -9 -24 -19 -20 -28
4 -12 3 -12 -9 -3 -10 8 -16 9 -21 1 -16 -25 29 -40 47 -15 5 6 8 5 8 -3 0 -7
-11 -17 -25 -22 -14 -5 -25 -14 -25 -20 0 -6 -4 -8 -10 -5 -5 3 -10 1 -10 -4
0 -6 7 -11 15 -11 8 0 15 5 15 12 0 6 2 9 5 6 7 -7 -5 -39 -14 -35 -3 2 -17
-8 -31 -21 -14 -14 -20 -22 -13 -18 8 4 7 -2 -2 -21 -8 -15 -12 -36 -9 -45 5
-17 -10 -26 -19 -10 -2 4 -2 1 -1 -5 2 -7 -2 -13 -9 -13 -8 0 -8 -3 2 -9 11
-7 9 -11 -8 -20 -12 -7 -19 -16 -16 -21 3 -5 -3 -13 -12 -19 -10 -6 -15 -11
-11 -11 4 0 0 -9 -10 -20 -9 -12 -18 -25 -18 -30 -1 -6 -3 -11 -4 -12 -8 -9
-7 -58 1 -58 6 0 7 5 3 12 -5 7 -3 8 5 3 9 -5 10 -10 2 -18 -14 -14 -14 -40
-1 -32 10 6 -28 -56 -50 -82 -5 -7 -10 -17 -10 -23 0 -5 -4 -10 -10 -10 -5 0
-10 -5 -10 -11 0 -7 -7 -17 -15 -23 -13 -9 -11 -11 11 -13 16 0 22 2 15 7 -10
5 -8 9 4 13 9 4 13 3 10 -3 -3 -6 -1 -10 6 -10 7 0 4 -6 -6 -14 -21 -15 -29
-66 -11 -67 6 0 2 -4 -9 -8 -19 -8 -19 -8 2 -26 17 -14 20 -23 12 -36 -5 -10
-13 -29 -19 -43 -7 -20 -6 -24 5 -19 8 3 13 9 10 13 -2 4 4 15 15 25 19 17 19
16 16 -17 -4 -35 -22 -100 -37 -130 -5 -10 -4 -18 2 -20 6 -2 11 -21 11 -43
l0 -39 14 32 c17 42 29 41 32 -5 2 -20 5 -40 8 -45 3 -4 1 -8 -5 -8 -6 0 -6
-11 -1 -30 5 -19 5 -32 -2 -36 -6 -4 -5 -10 3 -15 10 -6 16 -2 21 14 5 18 6
15 8 -13 1 -19 2 -61 1 -93 -1 -35 3 -57 10 -57 6 0 9 8 7 18 -2 9 4 26 14 36
9 10 15 22 13 26 -3 5 2 11 11 14 8 3 12 2 9 -4 -3 -6 1 -10 9 -10 9 0 16 -5
16 -11 0 -5 4 -8 9 -4 6 3 10 -12 11 -32 1 -21 2 -64 3 -96 2 -44 5 -56 16
-52 11 4 11 3 2 -9 -7 -8 -10 -24 -6 -35 5 -17 9 -18 20 -8 7 6 11 15 9 18 -2
4 5 9 16 12 13 3 18 10 14 21 -4 10 -1 16 9 16 9 0 19 -17 26 -45 6 -25 16
-45 22 -45 5 0 7 -4 4 -10 -3 -5 -2 -10 3 -10 6 0 13 -17 17 -37 5 -21 10 -45
12 -53 2 -8 5 -20 5 -27 2 -16 45 -23 45 -7 0 7 -4 11 -8 8 -4 -2 -11 1 -15 7
-4 8 -3 9 4 5 8 -5 12 1 13 16 1 20 2 19 11 -7 5 -16 11 -39 12 -50 2 -11 5
-21 6 -22 1 -2 3 -6 4 -10 27 -101 46 -125 38 -46 l-4 47 26 -30 c40 -45 46
-53 46 -59 0 -3 9 -16 21 -28 l21 -22 -4 32 c-1 18 1 33 5 33 24 1 28 -1 22
-9 -3 -5 -1 -12 4 -16 6 -3 8 -12 5 -19 -3 -8 0 -17 5 -21 6 -3 9 -11 6 -16
-4 -5 -1 -9 4 -9 6 0 11 -6 11 -12 0 -7 18 -33 40 -58 l39 -45 -19 55 c-10 30
-16 58 -14 62 3 4 19 -7 36 -25 32 -33 32 -31 4 36 -9 21 -12 37 -6 37 5 0 10
-4 10 -8 0 -11 96 -112 107 -112 4 0 14 -9 21 -20 7 -12 17 -18 22 -15 5 3 13
-3 19 -12 6 -10 11 -12 11 -6 0 7 -11 20 -25 29 -14 9 -25 21 -25 26 0 5 -9
23 -21 40 -29 40 -21 43 27 11 47 -33 106 -64 99 -53 -3 5 -1 11 5 15 5 3 10
2 10 -2 0 -5 14 -14 31 -20 25 -10 29 -10 19 2 -7 9 -8 15 0 20 5 3 10 1 10
-6 0 -7 3 -9 6 -6 4 3 14 2 24 -3 9 -5 34 -10 54 -12 20 -1 36 -6 36 -10 0 -5
8 -8 17 -6 11 2 17 -2 15 -10 -1 -8 2 -11 7 -7 6 3 7 13 4 22 -4 10 -2 14 4
10 6 -4 16 -1 22 7 8 10 5 16 -15 24 -14 7 -22 17 -19 22 9 14 37 8 52 -10 7
-8 13 -11 13 -6 0 5 7 3 15 -4 8 -7 15 -9 15 -5 0 4 7 2 15 -5 12 -10 15 -10
15 4 0 19 45 50 59 41 7 -3 8 0 5 9 -7 19 7 21 25 4 11 -11 12 -10 6 1 -6 11
-4 13 8 8 9 -3 18 -1 21 6 2 7 5 4 5 -5 1 -12 13 -4 44 27 63 66 97 105 91
105 -2 0 1 6 8 14 13 14 32 11 23 -4 -3 -5 -1 -11 5 -15 5 -3 10 -1 10 5 0 6
7 18 15 27 8 8 13 19 10 24 -4 5 1 9 9 9 13 0 16 -13 17 -62 2 -169 20 -567
28 -620 2 -11 37 -28 68 -33 15 -2 46 -8 68 -14 22 -5 41 -10 43 -11 1 0 3 0
5 -1 1 0 9 -2 17 -4 39 -10 57 -15 87 -24 17 -5 34 -7 37 -3 3 3 6 0 6 -7 0
-7 3 -10 8 -7 4 2 32 -4 61 -15 30 -10 57 -17 59 -14 3 3 10 0 17 -5 6 -5 20
-11 31 -13 10 -1 24 -5 29 -9 8 -5 63 -22 108 -34 4 -1 9 -3 12 -4 3 -1 10 -4
15 -5 6 -1 11 -3 13 -5 1 -1 9 -3 17 -6 14 -3 149 -51 195 -68 11 -5 56 -21
100 -38 44 -16 97 -38 118 -49 22 -10 47 -19 58 -19 10 0 19 -4 19 -10 0 -5 4
-10 9 -10 5 0 22 -5 38 -12 15 -6 30 -12 33 -13 19 -6 55 -23 125 -56 44 -20
87 -39 95 -41 14 -3 19 -6 52 -34 8 -6 19 -9 26 -6 6 2 12 -1 12 -7 0 -6 9
-11 20 -11 11 0 20 -4 20 -8 0 -4 16 -14 35 -21 19 -7 35 -17 35 -22 0 -5 8
-9 18 -9 10 0 28 -9 40 -20 12 -12 22 -18 22 -15 0 3 17 -5 38 -18 20 -13 52
-30 70 -38 17 -8 32 -17 32 -20 0 -4 15 -12 33 -20 17 -7 35 -18 39 -23 4 -6
11 -11 15 -11 4 -1 27 -13 50 -28 24 -15 45 -27 48 -27 8 0 69 -44 73 -52 2
-5 9 -8 14 -8 6 0 35 -18 64 -40 29 -22 65 -45 79 -52 14 -6 25 -15 25 -20 0
-9 58 29 121 77 14 11 36 27 49 35 12 8 28 21 36 28 7 6 16 12 19 12 4 0 24
13 45 30 21 16 41 30 44 30 4 0 16 9 28 20 12 10 25 17 30 14 4 -3 8 -1 8 5 0
6 18 20 39 30 21 11 45 26 52 33 8 7 34 23 59 36 47 24 68 36 111 64 14 10 29
15 33 11 3 -3 6 -1 6 5 0 6 16 16 35 23 19 7 35 17 35 21 0 4 3 7 8 6 9 -2
125 54 133 65 3 5 10 9 15 9 5 0 34 11 64 25 82 38 144 66 150 68 3 1 14 5 25
10 119 48 154 61 170 64 6 1 20 9 33 17 12 8 22 12 22 10 0 -3 20 3 45 14 25
11 45 17 45 13 0 -3 6 -1 13 4 10 8 39 19 77 28 3 0 15 6 28 13 12 7 22 11 22
8 0 -3 24 3 53 13 28 10 55 19 60 20 4 0 8 1 10 2 1 0 9 2 17 4 8 2 26 7 40
10 27 7 25 7 155 34 96 21 145 30 185 35 14 2 41 7 60 11 19 4 46 8 60 10 78
8 157 18 170 21 8 1 20 3 26 3 8 1 11 33 9 106 -1 64 2 108 8 112 6 3 7 1 3
-5 -4 -7 -3 -12 3 -12 5 0 14 7 19 16 6 11 14 14 23 8 8 -5 22 -7 31 -6 10 2
32 -3 50 -11 53 -24 67 -27 73 -17 4 6 11 10 16 10 6 0 7 -5 3 -12 -5 -7 -2
-9 9 -5 9 3 17 1 19 -5 3 -7 9 -8 19 -3 17 11 45 12 81 3 16 -4 34 -1 47 9 35
24 23 -3 -16 -38 -22 -19 -29 -30 -18 -25 11 4 25 8 30 9 6 1 12 5 15 9 3 3
14 8 25 10 11 1 27 12 36 23 10 11 32 29 50 39 l34 19 -19 -21 c-11 -12 -15
-22 -10 -22 5 0 2 -5 -6 -10 -11 -7 -11 -10 -2 -10 24 0 87 38 125 76 l38 38
-17 -40 c-9 -21 -29 -59 -46 -84 l-29 -45 38 41 c21 22 50 56 65 75 24 31 26
32 21 9 -6 -25 -6 -25 24 5 67 66 111 103 117 98 3 -4 6 0 6 7 0 7 3 11 6 7 8
-8 78 61 98 98 l17 30 -6 -30 c-4 -16 -17 -51 -30 -78 -13 -26 -22 -47 -20
-47 11 0 107 176 117 216 23 83 30 39 14 -83 -4 -29 -5 -53 -2 -53 3 0 13 26
22 58 9 31 21 63 26 70 13 15 32 16 22 0 -4 -6 -3 -8 3 -5 6 4 16 20 23 37 7
16 18 30 25 30 12 0 47 66 45 84 -1 5 2 12 7 15 14 9 62 171 56 187 -3 8 0 14
5 14 6 0 14 -17 17 -37 11 -70 24 -82 19 -18 -3 33 -7 65 -9 72 -2 7 0 15 4
18 5 2 11 -5 14 -17 9 -33 16 -19 18 37 1 28 6 57 10 66 4 8 9 52 10 96 1 45
6 87 10 95 7 10 9 9 9 -4 0 -10 4 -18 9 -18 5 0 3 23 -4 50 -7 28 -11 50 -9
50 2 0 13 -20 25 -44 24 -51 56 -86 41 -45 -5 13 -7 30 -4 37 2 8 -1 32 -7 55
-6 23 -12 51 -14 62 -1 11 -6 25 -10 31 -11 19 5 25 19 6 12 -16 13 -16 14 0
0 9 -4 20 -10 23 -5 3 -10 11 -10 16 0 6 4 8 8 5 4 -3 8 13 8 35 -1 24 -7 44
-16 49 -12 8 -12 10 -1 10 11 0 11 4 -2 18 -10 10 -17 25 -17 33 1 12 3 12 13
-1 7 -8 21 -22 31 -30 18 -14 19 -14 8 7 -7 12 -17 25 -22 28 -6 4 -8 10 -5
15 3 5 -5 18 -17 29 -12 12 -16 21 -9 21 8 0 7 9 -6 30 -9 17 -21 30 -26 30
-4 0 -3 10 4 22 10 18 9 20 -4 15 -11 -4 -14 -2 -10 9 3 9 -8 32 -26 54 -37
46 -37 46 -11 46 11 0 20 -4 20 -8 0 -4 6 -8 13 -8 6 0 25 -7 41 -15 25 -14
27 -14 16 0 -7 8 -18 15 -24 15 -12 0 -64 50 -126 120 -42 47 -50 66 -25 56
45 -18 46 -14 8 21 -46 41 -55 64 -24 56 30 -8 34 14 3 23 -15 4 -31 6 -37 5
-5 -2 -7 0 -3 4 9 9 -37 47 -84 69 -21 9 -38 19 -38 21 0 5 61 -5 93 -15 16
-5 25 -5 22 0 -3 4 -29 16 -58 26 -28 9 -56 20 -62 24 -11 8 -87 28 -125 33
-14 2 5 7 43 11 37 5 67 12 67 15 0 9 -16 11 -110 10 -83 0 -89 12 -9 18 63 4
100 21 54 24 -16 1 -48 2 -70 1 l-40 -1 48 24 c26 13 60 28 75 34 24 9 22 10
-13 4 -22 -3 -50 -7 -62 -8 -13 -1 -26 -5 -30 -8 -3 -4 -13 -7 -22 -7 -30 1
21 23 94 41 l70 18 -65 -6 c-36 -3 -78 -7 -94 -8 -24 -2 -26 -1 -14 11 7 8 29
15 48 17 19 2 36 9 38 15 5 16 -74 2 -185 -33 -42 -13 -24 11 27 36 51 25 69
46 25 29 -14 -5 -25 -7 -25 -4 0 3 -19 -8 -42 -24 -24 -16 -54 -32 -68 -36
-24 -7 -24 -7 -5 8 11 9 31 25 44 36 l23 21 -43 -7 c-58 -8 -97 -23 -137 -52
-28 -21 -32 -22 -26 -6 4 11 10 24 13 29 3 6 7 19 8 30 2 10 9 23 16 27 6 4 8
8 3 8 -6 0 -5 5 2 12 7 7 12 18 12 26 0 8 7 28 15 45 8 18 23 55 34 84 11 28
40 93 65 145 24 51 47 104 51 118 4 14 11 27 14 30 4 3 22 39 40 80 19 41 39
78 45 82 6 4 7 8 3 8 -5 0 2 19 16 43 56 96 197 376 197 390 0 12 -9 15 -37
12 -46 -4 -55 8 -37 51 11 27 12 34 2 35 -7 1 -30 3 -52 5 -48 4 -49 5 -37 37
8 19 7 27 -5 31 -8 3 -14 1 -14 -4 0 -5 -8 -9 -17 -9 -10 0 -34 -4 -53 -9
-120 -35 -156 -47 -162 -56 -4 -6 -8 -8 -8 -4 0 6 -57 -9 -110 -29 -8 -3 -19
-7 -25 -9 -5 -1 -29 -9 -52 -17 -22 -9 -44 -13 -47 -10 -3 4 -6 1 -6 -5 0 -7
-7 -12 -15 -12 -9 0 -46 -10 -83 -22 -37 -12 -70 -21 -74 -20 -5 1 -8 -2 -8
-7 0 -7 -29 -19 -48 -21 -1 0 -17 -6 -36 -14 -19 -8 -37 -12 -40 -8 -3 3 -6 0
-6 -6 0 -7 -8 -12 -18 -12 -10 0 -27 -7 -38 -15 -10 -8 -27 -15 -36 -15 -10 0
-18 -4 -18 -9 0 -9 -147 -71 -168 -71 -7 0 -12 -4 -12 -8 0 -5 -26 -17 -57
-27 -32 -11 -62 -22 -68 -26 -27 -18 -71 -19 -88 -2 -60 64 -93 108 -95 126 0
5 -10 17 -21 26 -12 10 -21 25 -21 32 0 8 -9 21 -19 29 -11 7 -18 17 -16 21 3
4 -19 31 -48 61 -28 31 -65 72 -82 93 -16 20 -40 50 -52 65 -13 15 -23 32 -23
37 0 4 -9 14 -20 21 -12 7 -18 17 -15 21 3 5 2 11 -2 13 -5 1 -33 35 -63 73
-54 70 -126 145 -138 145 -4 0 -13 9 -20 20 -10 17 -10 20 3 20 8 0 15 3 14 8
-3 17 14 51 28 56 21 8 33 -2 26 -21 -4 -11 -3 -14 6 -9 6 4 10 15 9 24 -2 9
3 16 10 15 6 -2 12 2 12 7 0 6 -4 10 -10 10 -5 0 -7 7 -4 15 4 8 10 15 16 15
5 0 7 -4 4 -8 -2 -4 -1 -14 5 -22 9 -15 12 0 12 53 0 10 5 16 12 13 7 -2 22
13 34 35 12 21 19 39 15 39 -3 0 -1 6 5 14 6 7 12 25 13 40 1 14 7 26 12 26 5
0 7 3 3 6 -3 4 0 19 8 34 8 15 11 31 7 35 -4 5 -1 5 6 1 7 -4 10 -12 7 -17 -4
-5 0 -9 7 -9 10 0 10 -2 0 -9 -16 -9 -15 -20 1 -40 10 -12 9 -13 -1 -7 -10 6
-13 2 -12 -15 1 -13 1 -26 0 -29 -1 -3 -3 -21 -5 -40 -2 -19 -1 -25 2 -12 2
12 9 22 14 22 5 0 8 3 7 8 -4 13 24 112 33 118 5 3 9 14 9 24 0 10 6 21 13 23
10 4 10 6 0 6 -7 1 -13 8 -13 16 0 18 16 20 24 3 3 -7 3 -2 1 12 -12 66 -13
80 -5 80 7 0 20 -27 25 -50 8 -38 35 -70 35 -40 0 6 -3 10 -8 10 -4 0 -8 25
-9 55 -1 33 2 53 8 50 5 -4 9 -1 9 4 0 6 -4 11 -9 11 -5 0 -8 11 -7 25 1 33
11 32 24 -2 27 -74 25 -70 29 -46 3 12 0 30 -6 41 -7 14 -7 19 4 19 8 0 13 -3
12 -6 -2 -8 41 -101 47 -101 3 0 4 9 3 20 -1 11 -5 20 -10 20 -5 0 -7 6 -5 12
3 7 -1 24 -8 37 -7 14 -11 28 -8 33 3 4 1 8 -5 8 -5 0 -8 11 -7 25 2 13 -1 22
-5 19 -5 -3 -9 2 -9 10 0 26 -1 30 -11 42 -5 7 -3 11 6 11 8 0 13 -3 10 -5 -3
-3 3 -11 13 -19 16 -12 15 -13 -3 -7 -18 6 -17 5 3 -10 12 -10 22 -24 22 -33
0 -9 3 -14 6 -10 3 3 0 23 -7 44 -7 21 -12 42 -11 47 2 4 -2 14 -8 21 -9 10
-6 16 10 25 12 6 28 9 36 6 9 -3 12 -1 9 4 -3 6 2 10 13 10 10 0 22 3 26 7 4
5 11 8 14 9 4 0 24 8 46 17 21 9 40 17 43 17 2 0 9 5 16 10 26 22 88 60 98 60
6 0 7 5 4 10 -3 6 -1 10 5 10 17 0 134 124 170 180 8 13 23 32 33 42 9 10 17
20 17 23 1 14 35 75 42 75 5 0 7 4 3 9 -3 5 1 16 9 24 8 8 12 17 9 21 -4 3 -2
6 3 6 5 0 16 21 23 48 8 26 17 49 20 52 8 7 32 91 32 113 0 9 3 17 7 17 4 0 7
12 8 28 1 15 4 47 8 72 5 25 9 86 9 135 1 50 7 93 12 97 7 5 6 8 0 8 -6 0 -11
10 -11 23 -1 20 -4 43 -19 130 -14 79 -63 187 -120 263 -44 59 -124 134 -142
134 -7 0 -13 4 -13 9 0 9 -54 31 -95 39 -11 2 -65 6 -120 7 -76 2 -111 -1
-146 -15 l-47 -17 -20 36 c-11 20 -22 41 -23 46 -1 6 -9 16 -16 23 -7 8 -11
18 -8 23 4 5 2 9 -3 9 -4 0 -16 17 -26 38 l-18 37 21 -22 c12 -12 21 -25 21
-28 0 -7 38 -45 46 -45 7 0 -49 104 -58 108 -5 2 -8 11 -8 20 0 9 17 -7 38
-36 20 -28 41 -52 45 -52 11 0 -42 92 -66 113 -10 9 -16 17 -11 17 4 0 -9 16
-29 35 -20 19 -37 38 -37 41 0 3 25 -8 56 -26 63 -35 79 -35 37 1 -16 13 -36
34 -44 47 -9 12 -32 40 -52 61 -20 21 -64 76 -99 122 -34 46 -74 94 -88 107
-26 24 99 -47 135 -77 20 -16 20 -16 2 5 -10 12 -33 30 -52 40 -19 10 -35 22
-35 26 0 5 -5 8 -11 8 -6 0 -27 16 -46 35 -19 19 -41 35 -48 35 -7 0 -15 4
-17 9 -1 5 -27 20 -56 35 -29 15 -50 31 -47 36 3 5 -13 21 -35 37 -41 29 -52
48 -22 39 9 -3 28 -7 42 -10 14 -2 37 -9 53 -15 15 -6 27 -8 27 -5 0 4 6 2 13
-4 7 -6 26 -16 42 -22 30 -11 30 -11 10 7 -27 25 -90 63 -104 63 -7 0 -19 7
-28 15 -8 8 -19 13 -24 10 -5 -4 -9 -1 -9 5 0 6 -4 9 -8 6 -5 -3 -22 2 -38 10
-16 9 -30 15 -31 15 -2 -1 -9 -1 -15 -1 -9 0 -9 3 1 9 9 6 24 5 39 0 14 -5 26
-8 28 -6 4 4 -39 41 -46 40 -3 0 -15 4 -28 10 -18 8 -25 8 -33 -4 -7 -12 -9
-11 -9 2 0 13 -9 17 -39 15 -28 -1 -37 3 -33 12 2 7 7 11 9 8 9 -8 41 27 36
40 -3 7 5 14 19 17 20 4 19 4 -6 6 -24 1 -27 -2 -23 -19 4 -16 -2 -22 -31 -30
-42 -11 -56 -5 -19 9 43 17 40 29 -8 29 -25 0 -45 -3 -45 -7 0 -4 -9 -7 -20
-8 -29 -2 -25 15 5 23 21 5 38 27 18 22 -5 -1 -21 4 -38 11 -16 7 -51 14 -77
15 -53 1 -62 15 -26 40 35 25 14 29 -26 5 -40 -24 -47 -20 -15 10 16 15 17 19
5 17 -8 -1 -24 -13 -36 -26 -11 -13 -23 -20 -27 -16 -8 8 46 58 56 52 4 -3 17
4 31 14 l24 18 -57 -1 c-36 -1 -63 -8 -76 -19 -26 -23 -62 -41 -68 -35 -2 3 5
8 16 12 12 3 19 11 16 16 -4 5 -1 9 4 9 6 0 11 5 11 10 0 6 -11 3 -24 -5 l-23
-16 2 45 c2 24 11 56 21 71 14 22 15 27 4 23 -8 -3 -14 -11 -12 -17 1 -7 -2
-10 -8 -6 -15 9 -51 -14 -96 -62 l-41 -44 -2 57 c-1 31 -6 64 -11 74 -5 10 -7
20 -4 22 3 3 -2 8 -10 11 -12 5 -13 1 -6 -18 6 -15 6 -27 0 -30 -6 -4 -10 -1
-10 5 0 6 -3 9 -7 7 -5 -3 -9 9 -10 25 -1 17 -7 36 -13 43 -7 8 -7 14 -1 17 5
2 4 16 -4 33 l-14 30 6 -29 c9 -42 -10 -26 -48 42 -18 31 -36 59 -41 60 -4 2
-8 8 -8 14 0 13 -95 142 -132 181 -34 34 -34 32 -4 -26 26 -48 49 -110 60
-162 4 -21 -2 -14 -22 25 -41 78 -92 157 -92 142 0 -7 6 -23 14 -35 24 -36 65
-170 71 -228 4 -45 3 -50 -6 -31 -7 12 -16 22 -21 22 -4 0 -8 6 -8 14 0 7 -13
27 -30 44 -16 18 -30 34 -30 36 0 6 -131 135 -135 133 -2 -1 -22 15 -44 36
-23 21 -46 35 -53 31 -6 -4 -8 -3 -5 3 4 6 -5 21 -18 33 -14 13 -25 20 -25 16
0 -3 -13 7 -30 24 -16 17 -30 26 -30 20z m960 -640 c0 -5 -4 -10 -10 -10 -5 0
-10 5 -10 10 0 6 5 10 10 10 6 0 10 -4 10 -10z m-2270 -118 c0 -12 -49 -34
-60 -27 -4 3 -11 -2 -14 -11 -3 -8 -10 -12 -16 -9 -5 3 -10 2 -10 -3 0 -5 -7
-9 -15 -9 -9 0 -14 4 -13 9 2 5 7 9 12 8 5 -1 12 3 15 9 4 5 19 12 33 15 15 2
35 9 45 15 22 13 23 13 23 3z m2460 -12 c0 -5 -5 -10 -11 -10 -5 0 -7 5 -4 10
3 6 8 10 11 10 2 0 4 -4 4 -10z m-2630 -122 c0 -4 -7 -8 -15 -8 -8 0 -15 4
-15 8 0 5 7 9 15 9 8 0 15 -4 15 -9z m3370 -624 c0 -2 -9 0 -20 6 -11 6 -20
13 -20 16 0 2 9 0 20 -6 11 -6 20 -13 20 -16z m-3676 -2183 c3 -5 -1 -11 -9
-14 -9 -4 -12 -1 -8 9 6 16 10 17 17 5z m279 -436 c4 -8 2 -17 -3 -20 -6 -4
-10 3 -10 14 0 25 6 27 13 6z m3228 -42 c-12 -20 -14 -14 -5 12 4 9 9 14 11
11 3 -2 0 -13 -6 -23z m-5251 -1809 c0 -8 -19 -13 -24 -6 -3 5 1 9 9 9 8 0 15
-2 15 -3z m-208 -347 c-4 -14 -7 -16 -13 -5 -12 19 -11 25 5 25 8 0 11 -8 8
-20z m-162 -521 c0 -11 -19 -15 -25 -6 -3 5 1 10 9 10 9 0 16 -2 16 -4z m7923
-176 c3 -11 2 -18 -3 -15 -4 3 -10 14 -13 25 -3 11 -2 18 3 15 4 -3 10 -14 13
-25z m-76 -437 c-3 -10 -5 -4 -5 12 0 17 2 24 5 18 2 -7 2 -21 0 -30z m-7621
-68 c0 -14 -2 -25 -6 -25 -4 0 -7 13 -6 29 1 35 10 31 12 -4z"/>
<path d="M3577 5614 c-3 -5 1 -15 9 -22 16 -14 18 -5 5 17 -5 7 -11 9 -14 5z"/>
<path d="M1552 3461 c4 -13 18 -16 19 -4 0 4 -5 9 -11 12 -7 2 -11 -2 -8 -8z"/>
<path d="M1622 2020 c0 -14 2 -19 5 -12 2 6 2 18 0 25 -3 6 -5 1 -5 -13z"/>
<path d="M9161 1924 c0 -11 3 -14 6 -6 3 7 2 16 -1 19 -3 4 -6 -2 -5 -13z"/>
<path d="M7901 1306 c-9 -10 -8 -15 4 -20 9 -3 14 -2 10 3 -3 5 0 11 7 13 8 3
9 6 1 11 -6 4 -16 1 -22 -7z"/>
<path d="M8206 1255 c-16 -14 -24 -25 -18 -25 14 0 70 49 57 50 -5 0 -23 -11
-39 -25z"/>
</g>
</svg>
